<svg xmlns="http://www.w3.org/2000/svg" viewBox="0 0 122.64 134.26"><defs><style>.cls-1{fill:#643951;}</style></defs><g id="Layer_2" data-name="Layer 2"><g id="Layer_1-2" data-name="Layer 1"><path class="cls-1" d="M58.23,134.1c1.93-10.52,3.35-20.41,5.61-30.11,3.78-16.24,22-28.33,37.4-25.4,16.4,3.12,24.44,18.21,17.54,33.72-5.9,13.24-16.14,21.06-30.89,21.71C78.27,134.45,68.62,134.1,58.23,134.1Z"/><path class="cls-1" d="M51.92,134.26l-36.41,0c1.66-9.37,3.22-18.13,4.76-26.9,1.45-8.18,3-16.35,4.27-24.56.52-3.34,1.72-5,5.43-4.61,4.45.46,9,.06,13.44.66A19,19,0,0,1,59.48,92.14a18.32,18.32,0,0,1,.44,7.85A237.37,237.37,0,0,1,51.92,134.26Z"/><path class="cls-1" d="M0,73.9l.82-6H27.33c2-10.76,4-21.18,5.75-31.65C34.76,26,34.62,26,45.11,26q10.24,0,20.49-.08a9.71,9.71,0,0,0,1.55-.4L72,0h5.88c-1.6,9.45-3.12,18.7-4.75,27.94q-1.91,10.8-4,21.55c-2.86,14.6-14.81,24.38-29.77,24.4C26.36,73.92,13.4,73.9,0,73.9Z"/><path class="cls-1" d="M77.33,26.27c9.72,0,18.71-.59,27.59.15,11.93,1,18.81,10.2,17.58,22.16-1.72,16.83-21.17,29.58-36.68,24-7.57-2.71-13-9.37-12.42-17.39C74.06,45.67,75.92,36.19,77.33,26.27Z"/></g></g></svg>